<svg width="23" height="24" viewBox="0 0 23 24" fill="none" xmlns="http://www.w3.org/2000/svg">
<path fill-rule="evenodd" clip-rule="evenodd" d="M22.5348 21.7L21.0347 23.2L14.8758 17.0411C13.3251 18.2677 11.3655 19 9.23477 19C4.20897 19 0.134766 14.9258 0.134766 9.9C0.134766 4.87421 4.20897 0.800003 9.23477 0.800003C14.2606 0.800003 18.3348 4.87421 18.3348 9.9C18.3348 12.0307 17.6025 13.9904 16.3759 15.5411L22.5348 21.7ZM9.25586 16.9214C13.1219 16.9214 16.2559 13.7874 16.2559 9.92137C16.2559 6.05538 13.1219 2.92137 9.25586 2.92137C5.38987 2.92137 2.25586 6.05538 2.25586 9.92137C2.25586 13.7874 5.38987 16.9214 9.25586 16.9214Z" fill="#8298AB"/>
</svg>
