<svg width="166" height="45" viewBox="0 0 166 45" fill="none" xmlns="http://www.w3.org/2000/svg">
<rect x="0.515625" width="165" height="45" rx="5" fill="#181716"/>
<path fill-rule="evenodd" clip-rule="evenodd" d="M59.839 10.8667C59.8775 11.7131 59.5743 12.5387 59.0003 13.1506C58.3589 13.831 57.4642 14.2006 56.5399 14.167C55.1222 14.1556 53.8494 13.2776 53.3098 11.9389C52.7703 10.6002 53.0692 9.06159 54.0684 8.03459C54.7176 7.35777 55.6123 6.98571 56.5399 7.00681C57.0127 7.00521 57.4808 7.10236 57.9155 7.29231C58.3202 7.45898 58.6804 7.72118 58.9667 8.05743L58.374 8.66267C57.9215 8.11301 57.2421 7.81269 56.5399 7.85187C55.8341 7.84834 55.1573 8.13861 54.6656 8.65575C54.174 9.17289 53.9098 9.87227 53.9342 10.5926C53.9192 11.6811 54.547 12.672 55.5255 13.1041C56.504 13.5362 57.641 13.3248 58.4076 12.5682C58.7517 12.1874 58.9502 11.6929 58.9667 11.175H56.5399V10.3528H59.7943C59.8241 10.5224 59.8391 10.6944 59.839 10.8667ZM64.9611 8.01175H61.9415V10.1815H64.6927V11.0037H61.9415V13.1735H64.9611V14.0185H61.0469V7.16669H64.9611V8.01175ZM68.6292 14.0185H67.7681V8.01175H65.8893V7.16669H70.5528V8.01175H68.6292V14.0185ZM73.8407 14.0185V7.16669H74.7018V14.0185H73.8407ZM78.5266 14.0185H77.6654V8.01175H75.7866V7.16669H80.3942V8.01175H78.5266V14.0185ZM89.1285 13.1278C87.7674 14.5098 85.5688 14.5098 84.2078 13.1278C82.8884 11.7017 82.8884 9.47206 84.2078 8.04601C84.8586 7.37652 85.7443 7 86.6681 7C87.592 7 88.4776 7.37652 89.1285 8.04601C90.4534 9.46977 90.4534 11.704 89.1285 13.1278ZM84.8452 12.5568C85.8532 13.5818 87.483 13.5818 88.491 12.5568C89.481 11.4424 89.481 9.74278 88.491 8.62841C87.483 7.60342 85.8532 7.60342 84.8452 8.62841C83.8552 9.74278 83.8552 11.4424 84.8452 12.5568ZM91.3316 14.0185V7.16669H92.3828L95.6484 12.4997V7.16669H96.5095V14.0185H95.6149L92.2039 8.43428V14.0185H91.3316ZM83.0111 24.0108C84.281 23.9859 85.5065 24.4885 86.4067 25.4034C87.3069 26.3184 87.8049 27.5673 87.7865 28.8641C87.7864 31.5416 85.663 33.7133 83.0409 33.7175C80.4188 33.7216 78.2888 31.5568 78.2806 28.8793C78.2723 26.2018 80.3891 24.0234 83.0111 24.0108ZM83.0111 31.8104C83.7529 31.7929 84.4563 31.4701 84.9617 30.9153C85.467 30.3606 85.7315 29.6209 85.6951 28.8641C85.6923 27.6544 84.9655 26.5694 83.8624 26.1281C82.7593 25.6868 81.5042 25.9788 80.6972 26.8646C79.8903 27.7504 79.6956 29.0498 80.2063 30.1414C80.717 31.233 81.8293 31.8948 83.0111 31.8104ZM72.5993 24.0108H72.5882C73.8581 23.9859 75.0835 24.4885 75.9837 25.4034C76.884 26.3184 77.3819 27.5673 77.3635 28.8641C77.3635 31.5431 75.2378 33.7154 72.6142 33.7175C69.9907 33.7196 67.8617 31.5507 67.8576 28.8717C67.8535 26.1928 69.9758 24.0171 72.5993 24.0108ZM72.5993 31.8104H72.5882C73.3299 31.7929 74.0333 31.4701 74.5387 30.9153C75.0441 30.3606 75.3086 29.6209 75.2722 28.8641C75.269 27.6534 74.5407 26.568 73.4363 26.1276C72.3318 25.6873 71.0759 25.9817 70.2702 26.8699C69.4644 27.7581 69.2728 29.0592 69.7871 30.1501C70.3014 31.241 71.4169 31.8996 72.5993 31.8104ZM60.1969 25.5068L66.9853 25.4497C67.0632 25.8751 67.1007 26.3073 67.0971 26.7401C67.1497 28.5167 66.5241 30.2447 65.3525 31.5592C64.0135 32.9909 62.1336 33.7612 60.1969 33.6718C57.4894 33.7794 54.9411 32.3658 53.556 29.9878C52.1709 27.6098 52.1709 24.6485 53.556 22.2705C54.9411 19.8924 57.4894 18.4788 60.1969 18.5864C62.0989 18.5696 63.9265 19.3399 65.263 20.7219L63.8427 22.1722C62.8628 21.2061 61.5476 20.6764 60.1857 20.6991C57.221 20.6991 54.8177 23.1532 54.8177 26.1805C54.8177 29.2078 57.221 31.662 60.1857 31.662C61.5798 31.7187 62.9324 31.1712 63.9098 30.1546C64.5583 29.444 64.9524 28.5305 65.0282 27.5623H60.1969V25.5068ZM110.869 27.1055L111.104 27.6194L104.741 30.303C105.139 31.2305 106.053 31.8148 107.044 31.7762C108.001 31.7786 108.889 31.2668 109.382 30.4286L111.003 31.5706C110.12 32.9198 108.633 33.7263 107.044 33.7175C105.781 33.7364 104.565 33.23 103.675 32.3147C102.785 31.3994 102.297 30.1538 102.325 28.8641C102.248 27.604 102.685 26.3674 103.532 25.448C104.379 24.5285 105.562 24.0083 106.798 24.0108C108.652 24.0805 110.272 25.3117 110.869 27.1055ZM104.383 28.7271L108.632 26.9228C108.298 26.2498 107.603 25.8454 106.865 25.895C106.166 25.9272 105.508 26.2456 105.041 26.7784C104.574 27.3112 104.337 28.0136 104.383 28.7271ZM99.2159 33.432V19.1574H101.307V33.432H99.2159ZM95.7938 25.0956V24.2963H97.7173V32.941C97.7173 36.5268 95.6931 37.9999 93.244 37.9999C91.3978 38.0112 89.7298 36.8771 89.0278 35.1336L90.8507 34.357C91.2318 35.3746 92.1774 36.0559 93.244 36.0814C94.8096 36.0814 95.7826 35.0879 95.7826 33.2265V32.5299H95.7155C95.087 33.2702 94.1698 33.6883 93.2104 33.6718C90.6719 33.5461 88.677 31.4079 88.677 28.8128C88.677 26.2176 90.6719 24.0794 93.2104 23.9537C94.1667 23.9524 95.078 24.3678 95.7155 25.0956H95.7938ZM93.4005 31.8104H93.3894C94.1162 31.7819 94.7999 31.4509 95.2816 30.8943C95.7632 30.3378 96.0008 29.6042 95.9392 28.8641C95.9944 28.1275 95.756 27.3993 95.2781 26.8446C94.8001 26.2899 94.1231 25.9557 93.4005 25.9179C91.9052 26.0524 90.7583 27.3313 90.7583 28.8641C90.7583 30.397 91.9052 31.6759 93.4005 31.8104ZM115.667 19.1574H120.677C122.302 19.0382 123.855 19.8557 124.703 21.2758C125.551 22.6959 125.551 24.4806 124.703 25.9007C123.855 27.3208 122.302 28.1383 120.677 28.0191H117.758V33.432H115.667V19.1574ZM120.666 26.0092L120.71 26.0435C122.035 26.0435 123.109 24.9468 123.109 23.5939C123.109 22.2411 122.035 21.1444 120.71 21.1444H117.747V26.0092H120.666ZM133.56 23.9537L133.616 23.9879C135.998 23.9879 137.855 25.4382 137.855 27.9391V33.432H135.842V32.2901H135.775C135.193 33.2136 134.163 33.7391 133.091 33.6604C132.22 33.7261 131.361 33.4295 130.708 32.838C130.055 32.2465 129.664 31.4104 129.624 30.52C129.624 28.453 131.648 27.3111 133.65 27.3111C134.41 27.3078 135.159 27.4961 135.83 27.8592V27.7108C135.777 27.1621 135.51 26.6584 135.09 26.3127C134.669 25.9669 134.13 25.8082 133.594 25.8722C132.812 25.8069 132.067 26.219 131.693 26.9228L129.836 26.1348C130.541 24.7155 132.004 23.8587 133.56 23.9537ZM133.303 31.7762L133.359 31.8104C134.619 31.7791 135.664 30.8048 135.808 29.5265C135.228 29.1958 134.571 29.0301 133.907 29.0469C132.856 29.0469 131.67 29.4237 131.67 30.5657C131.67 31.4222 132.621 31.7762 133.303 31.7762ZM145.191 24.2963H147.517L141.791 37.7601H139.61L141.735 32.9524L138.011 24.2963H140.248L142.731 30.4857H142.798L145.191 24.2963ZM126.392 33.432V19.1574H128.483V33.432H126.392ZM43.9041 21.556C44.1845 21.7182 44.3521 22.0085 44.3521 22.3325C44.3521 22.6564 44.1845 22.9467 43.904 23.1085L38.8131 26.0469L35.2394 22.5923L39.1497 18.8125L43.9041 21.556ZM38.3427 18.3463L34.5951 21.9693L21.6443 9.45L33.1107 15.3259L38.3427 18.3463ZM21.8347 35.55L34.5951 23.2153L38.0062 26.513L33.1303 29.3278L21.8347 35.55ZM20.8793 9.95677L33.9506 22.5921L20.8672 35.2395L20.8793 9.95677Z" fill="#F5F9FC"/>
</svg>
