<svg width="166" height="45" viewBox="0 0 166 45" fill="none" xmlns="http://www.w3.org/2000/svg">
<rect x="0.515625" width="165" height="45" rx="5" fill="#181716"/>
<path fill-rule="evenodd" clip-rule="evenodd" d="M63.4326 29.6481H58.0725L56.7852 33.5332H54.5148L59.5919 19.1595H61.9508L67.0278 33.5332H64.7188L63.4326 29.6481ZM58.6276 27.8554H62.8764L60.7819 21.5502H60.7233L58.6276 27.8554ZM77.9926 28.294C77.9926 31.5505 76.2874 33.6428 73.714 33.6428C72.3838 33.714 71.1309 33.0018 70.4881 31.8094H70.4395V37H68.335V23.0536H70.372V24.7966H70.4107C71.082 23.6116 72.3363 22.8998 73.6753 22.944C76.2774 22.944 77.9926 25.0464 77.9926 28.294ZM75.8295 28.294C75.8295 26.1723 74.7568 24.7774 73.1201 24.7774C71.5122 24.7774 70.4306 26.2017 70.4306 28.294C70.4306 30.4055 71.5122 31.8196 73.1201 31.8196C74.7568 31.8196 75.8295 30.4349 75.8295 28.294ZM89.277 28.294C89.277 31.5505 87.5717 33.6428 84.9984 33.6428C83.6682 33.714 82.4153 33.0018 81.7725 31.8094H81.7238V37H79.6193V23.0536H81.6564V24.7966H81.6951C82.3664 23.6116 83.6207 22.8998 84.9596 22.944C87.5618 22.944 89.277 25.0464 89.277 28.294ZM87.1139 28.294C87.1139 26.1723 86.0412 24.7774 84.4045 24.7774C82.7966 24.7774 81.715 26.2017 81.715 28.294C81.715 30.4055 82.7966 31.8196 84.4045 31.8196C86.0412 31.8196 87.1139 30.4349 87.1139 28.294ZM96.7351 29.5283C96.891 30.9537 98.2457 31.8896 100.097 31.8896C101.871 31.8896 103.147 30.9537 103.147 29.6684C103.147 28.5528 102.377 27.8847 100.555 27.4269L98.7323 26.9782C96.1501 26.3406 94.9513 25.1063 94.9513 23.1033C94.9513 20.6233 97.0657 18.9198 100.068 18.9198C103.04 18.9198 105.077 20.6233 105.145 23.1033H103.021C102.894 21.6689 101.734 20.803 100.038 20.803C98.343 20.803 97.1829 21.679 97.1829 22.9541C97.1829 23.9703 97.9239 24.5682 99.7364 25.026L101.286 25.4148C104.171 26.1123 105.37 27.2969 105.37 29.3994C105.37 32.0885 103.274 33.7727 99.941 33.7727C96.8224 33.7727 94.7168 32.1281 94.5808 29.5282L96.7351 29.5283ZM109.912 20.5736V23.0536H111.861V24.7571H109.912V30.5343C109.912 31.4318 110.302 31.8501 111.159 31.8501C111.39 31.846 111.622 31.8293 111.851 31.8003V33.4936C111.466 33.5672 111.074 33.6005 110.682 33.5931C108.607 33.5931 107.797 32.7962 107.797 30.7638V24.7571H106.306V23.0536H107.797V20.5736H109.912ZM112.99 28.294C112.99 24.9967 114.89 22.9248 117.853 22.9248C120.826 22.9248 122.717 24.9967 122.717 28.294C122.717 31.6003 120.836 33.6632 117.853 33.6632C114.871 33.6632 112.99 31.6003 112.99 28.294ZM120.572 28.294C120.572 26.0321 119.558 24.6972 117.853 24.6972C116.148 24.6972 115.135 26.0423 115.135 28.294C115.135 30.5649 116.148 31.8897 117.853 31.8897C119.558 31.8897 120.572 30.5649 120.572 28.294ZM124.452 23.0536H126.459V24.8373H126.508C126.787 23.6891 127.817 22.8988 128.974 22.9439C129.216 22.9431 129.458 22.97 129.695 23.0242V25.0362C129.389 24.9406 129.069 24.8967 128.749 24.9063C128.13 24.8806 127.532 25.1326 127.11 25.5962C126.688 26.0597 126.486 26.6885 126.556 27.3173V33.5332H124.452L124.452 23.0536ZM139.398 30.4552C139.115 32.3576 137.302 33.6632 134.983 33.6632C132 33.6632 130.149 31.6206 130.149 28.3437C130.149 25.0566 132.01 22.9247 134.894 22.9247C137.731 22.9247 139.515 24.9164 139.515 28.0939V28.8309H132.274V28.9609C132.206 29.7411 132.47 30.5133 132.997 31.0813C133.525 31.6492 134.266 31.958 135.032 31.9292C136.053 32.027 137.016 31.4276 137.399 30.4552L139.398 30.4552ZM132.283 27.3275L137.409 27.3275C137.447 26.6264 137.198 25.9409 136.72 25.436C136.243 24.9311 135.581 24.6527 134.894 24.6678C134.202 24.6635 133.537 24.9421 133.047 25.4416C132.557 25.941 132.282 26.62 132.283 27.3275ZM58.3638 8.3403C59.2573 8.27477 60.1323 8.62221 60.7482 9.28698C61.3641 9.95176 61.6559 10.8638 61.5432 11.7721C61.5432 13.9785 60.3765 15.2469 58.3638 15.2469H55.9232V8.3403H58.3638ZM56.9726 14.2701H58.2466C58.8851 14.3091 59.5068 14.052 59.9391 13.5701C60.3714 13.0883 60.5682 12.433 60.475 11.7862C60.5614 11.142 60.3617 10.4921 59.9305 10.0142C59.4993 9.53625 58.8817 9.28028 58.2466 9.31631H56.9726V14.2701ZM62.7287 12.6385C62.6413 11.7042 63.0796 10.8001 63.8597 10.3053C64.6399 9.81041 65.6271 9.81041 66.4072 10.3053C67.1874 10.8001 67.6256 11.7042 67.5382 12.6385C67.6273 13.5737 67.1894 14.4796 66.4086 14.9755C65.6277 15.4714 64.6392 15.4714 63.8584 14.9755C63.0775 14.4796 62.6396 13.5737 62.7287 12.6385ZM66.5031 12.6385C66.5031 11.5087 66.0066 10.848 65.1351 10.848C64.2604 10.848 63.7683 11.5087 63.7683 12.6385C63.7683 13.7773 64.2604 14.4329 65.1351 14.4329C66.0066 14.4329 66.5031 13.7728 66.5031 12.6385ZM73.9313 15.2468H72.8873L71.8335 11.408H71.7538L70.7043 15.2468H69.6703L68.2648 10.0347H69.2855L70.199 14.0118H70.2742L71.3225 10.0347H72.288L73.3363 14.0118H73.416L74.325 10.0347H75.3313L73.9313 15.2468ZM76.5135 10.0347H77.4823V10.8626H77.5575C77.819 10.253 78.4301 9.88012 79.0792 9.93405C79.5817 9.89543 80.0742 10.0925 80.4176 10.4696C80.761 10.8467 80.9179 11.363 80.8441 11.8726V15.2467H79.8378V12.1309C79.8378 11.2933 79.4817 10.8768 78.7374 10.8768C78.3965 10.8606 78.0657 10.9973 77.8317 11.2512C77.5976 11.5051 77.4838 11.8507 77.5199 12.1976V15.2468H76.5135L76.5135 10.0347ZM82.4477 8H83.454V15.2467H82.4477V8ZM84.8529 12.6385C84.7656 11.7042 85.2039 10.8 85.9841 10.3052C86.7643 9.81031 87.7516 9.81031 88.5318 10.3052C89.312 10.8 89.7503 11.7042 89.663 12.6385C89.7519 13.5737 89.314 14.4796 88.5331 14.9755C87.7522 15.4714 86.7637 15.4714 85.9828 14.9755C85.2019 14.4796 84.764 13.5737 84.8529 12.6385ZM88.6273 12.6385C88.6273 11.5087 88.1308 10.848 87.2593 10.848C86.3846 10.848 85.8925 11.5087 85.8925 12.6385C85.8925 13.7773 86.3846 14.4329 87.2593 14.4329C88.1308 14.4329 88.6273 13.7728 88.6273 12.6385ZM90.7224 13.7728C90.7224 12.8346 91.4058 12.2937 92.619 12.2168L94.0002 12.1354V11.6856C94.0002 11.1351 93.6441 10.8242 92.9563 10.8242C92.3945 10.8242 92.0052 11.035 91.8935 11.4035H90.9192C91.0221 10.5083 91.846 9.93407 93.0027 9.93407C94.2811 9.93407 95.0021 10.5846 95.0021 11.6856V15.2468H94.0334V14.5143H93.9538C93.6247 15.0492 93.0396 15.3618 92.4221 15.3326C91.9892 15.3787 91.5575 15.2354 91.2337 14.9382C90.9098 14.641 90.7241 14.2176 90.7224 13.7728ZM94.0002 13.3274V12.8917L92.755 12.973C92.0528 13.0211 91.7343 13.2652 91.7343 13.7247C91.7343 14.1938 92.1324 14.4668 92.6798 14.4668C93.0039 14.5003 93.3274 14.398 93.5763 14.1832C93.8252 13.9684 93.9782 13.6596 94.0002 13.3274ZM96.3248 12.6385C96.3248 10.9915 97.1531 9.9482 98.4414 9.9482C99.092 9.91756 99.7013 10.2739 100.005 10.8626H100.08V8H101.087V15.2467H100.122V14.4233H100.043C99.7159 15.0071 99.0991 15.3574 98.4414 15.3326C97.1442 15.3327 96.3248 14.2894 96.3248 12.6385ZM97.3643 12.6385C97.3643 13.744 97.8741 14.4092 98.7268 14.4092C99.575 14.4092 100.099 13.7344 100.099 12.643C100.099 11.5567 99.5695 10.8723 98.7268 10.8723C97.8796 10.8723 97.3643 11.542 97.3643 12.6385ZM105.25 12.6385C105.163 11.7042 105.601 10.8001 106.381 10.3053C107.161 9.81041 108.149 9.81041 108.929 10.3053C109.709 10.8001 110.147 11.7042 110.06 12.6385C110.149 13.5737 109.711 14.4796 108.93 14.9755C108.149 15.4714 107.161 15.4714 106.38 14.9755C105.599 14.4796 105.161 13.5737 105.25 12.6385ZM109.025 12.6385C109.025 11.5087 108.528 10.848 107.657 10.848C106.782 10.848 106.29 11.5087 106.29 12.6385C106.29 13.7773 106.782 14.4329 107.657 14.4329C108.528 14.4329 109.025 13.7728 109.025 12.6385ZM111.41 10.0347H112.379V10.8626H112.454C112.716 10.253 113.327 9.88012 113.976 9.93405C114.478 9.89543 114.971 10.0925 115.314 10.4696C115.657 10.8467 115.814 11.363 115.741 11.8726V15.2467H114.734V12.1309C114.734 11.2933 114.378 10.8768 113.634 10.8768C113.293 10.8606 112.962 10.9973 112.728 11.2512C112.494 11.5051 112.38 11.8507 112.416 12.1976V15.2468H111.41V10.0347ZM121.427 8.73701V10.0584H122.532V10.9248H121.427V13.6049C121.427 14.1509 121.647 14.3899 122.148 14.3899C122.276 14.3895 122.405 14.3816 122.532 14.3662V15.223C122.351 15.2561 122.168 15.2736 121.984 15.2756C120.865 15.2756 120.42 14.8732 120.42 13.8683V10.9248H119.61V10.0584H120.42V8.73701H121.427ZM123.906 8H124.904V10.8723H124.984C125.258 10.2573 125.879 9.88392 126.538 9.93858C127.038 9.91078 127.524 10.1122 127.864 10.4879C128.203 10.8637 128.361 11.3747 128.295 11.8817V15.2468H127.287V12.1354C127.287 11.3029 126.908 10.8813 126.197 10.8813C125.847 10.8519 125.502 10.982 125.254 11.2368C125.007 11.4916 124.882 11.845 124.913 12.2027V15.2467H123.907L123.906 8ZM134.162 13.8395C133.88 14.8226 132.949 15.4578 131.953 15.3474C131.273 15.3657 130.619 15.0776 130.166 14.5596C129.712 14.0415 129.504 13.3458 129.597 12.6571C129.507 11.9665 129.714 11.2697 130.165 10.7472C130.616 10.2248 131.267 9.92812 131.948 9.93406C133.367 9.93406 134.223 10.9249 134.223 12.5616V12.9205H130.622V12.9781C130.591 13.3649 130.72 13.7475 130.978 14.0317C131.237 14.316 131.601 14.4756 131.98 14.4713C132.473 14.5317 132.952 14.2821 133.194 13.8394L134.162 13.8395ZM130.622 12.1597H133.198C133.224 11.806 133.102 11.4577 132.863 11.2005C132.624 10.9434 132.29 10.8014 131.943 10.8095C131.591 10.805 131.253 10.9458 131.004 11.2001C130.756 11.4543 130.618 11.8003 130.622 12.1597ZM43.549 22.651C43.5516 25.0793 45.0098 27.2707 47.2523 28.2167C46.8211 29.6139 46.1709 30.9344 45.3261 32.1292C44.1915 33.8218 43.0019 35.4755 41.1137 35.5061C39.2791 35.5483 38.6625 34.4293 36.5582 34.4293C34.4342 34.4293 33.7771 35.4755 32.0175 35.5483C30.2193 35.6147 28.8451 33.7417 27.6692 32.0649C25.319 28.6406 23.489 22.4147 25.9424 18.1785C27.0945 16.1138 29.2487 14.8036 31.6167 14.7273C33.4165 14.6904 35.0878 15.9395 36.1944 15.9395C37.2799 15.9395 39.3451 14.4452 41.4754 14.6682C43.5002 14.7314 45.3766 15.7431 46.5385 17.398C44.705 18.5222 43.5768 20.5047 43.549 22.651ZM40.0837 12.4162C39.0849 13.6551 37.5715 14.3687 35.9776 14.3523C35.8762 12.7989 36.3982 11.2691 37.4285 10.0997C38.4719 8.91443 39.9248 8.16475 41.4976 8C41.6204 9.59945 41.1132 11.1837 40.0837 12.4162Z" fill="#F5F9FC"/>
</svg>
